<?xml version="1.0" encoding="utf-8"?>
<!-- Generator: Adobe Illustrator 17.0.0, SVG Export Plug-In . SVG Version: 6.00 Build 0)  -->
<!DOCTYPE svg PUBLIC "-//W3C//DTD SVG 1.1//EN" "http://www.w3.org/Graphics/SVG/1.1/DTD/svg11.dtd">
<svg version="1.1" id="Calque_1" xmlns="http://www.w3.org/2000/svg" xmlns:xlink="http://www.w3.org/1999/xlink" x="0px" y="0px"
	 width="1456.1px" height="368.9px" viewBox="20.7 270.2 1456.1 368.9" style="enable-background:new 20.7 270.2 1456.1 368.9;"
	 xml:space="preserve">
<style type="text/css">
	.st0{fill:#AAAAAA;}
	.st1{display:none;fill:#7B171A;}
</style>
<g>
	<path class="st0" d="M429.8,467.1c-11.8-9.9-20.3-21.4-24.5-35.8c-11.3-39.2,10.7-77.4,51.4-89c22.5-6.4,44.8-4.8,66.6,3.3
		c1.4,0.5,2.7,1,4.3,1.6c0.8-3.2,1.4-6,2.2-8.9c5-16.9,15.2-25.3,34.3-27c7.1-0.6,14.2-0.1,21.7-0.1c0,8.5,0,17,0,25.9
		c-6.3,0.6-12.7,1.2-19,1.8c-11.1,1.2-17.6,7.6-20.6,18.1c-0.9,3.2-0.4,5.5,1.7,8.1c11.9,14.7,18.6,31.5,17.6,50.7
		c-1.6,30.3-18,50.5-45.1,62.1c-19.9,8.5-40.8,8.1-61.8,3.6c-15.2-3.2-29.2,10.9-25.5,25c1.9,7.1,7,10.7,13.6,11.5
		c15.2,1.7,30.5,2.8,45.7,4.1c19.9,1.7,39.9,2.3,59.6,5.3c22.2,3.4,39.2,21.1,41.8,42c2.8,22.3-3.8,41.4-26.9,54.4
		c-14.2,7.9-29.8,11.3-45.7,13.1c-22.1,2.6-44.2,2.9-66.3,0c-18.2-2.3-35.7-6.6-50-19.2c-20.5-18-21.9-50.1-2.5-67.2
		c5.2-4.6,11.8-7.7,17.6-11.4C392.8,521.4,392.1,484,429.8,467.1z M491.6,613.4c4-0.3,10.2-0.4,16.3-1.1c13.6-1.5,27-3.9,39.4-10.1
		c11.1-5.6,16.3-14.9,14.9-25.8c-1.2-10-8.6-17.9-20.8-20c-10.1-1.8-20.5-2.4-30.8-3c-19-1.1-38-1.3-56.9-2.8
		c-13.3-1-27.2,7.3-31.2,20.1c-3.4,11-0.3,21.5,9.2,28.3c4.1,3,8.8,5.4,13.6,7.3C459.5,611.8,474.4,613.1,491.6,613.4z M436.9,412.2
		c-0.2,28.1,18.5,46.9,46.9,47c28.4,0.2,48.3-19,48.4-46.5c0.1-27.4-20.2-48.1-47.2-48.2C462.2,364.5,436.2,380.2,436.9,412.2z"/>
	<path class="st0" d="M1258.9,558.2c-11.3,0-21.9,0.2-32.5-0.2c-1.4,0-3.2-2.4-4.1-4.1c-18.4-35-36.8-70.1-55.2-105.2
		c-1.6-3.1-3.3-6.1-5.1-9.6c-15.2,17.5-30.1,34.5-44.9,51.7c-1,1.2-1.1,3.4-1.1,5.1c0,18.7,0,37.3,0,56c0,1.8,0,3.6,0,5.8
		c-11.2,0-22.1,0-33.8,0c0-1.5,0-3.3,0-5c0-130.3,1-125.6,0.9-256c0-3.8,0.2-6,3.4-7.9c8.4-5.1,16.5-10.6,24.8-16
		c1.3-0.9,2.8-1.6,4.7-2.8c0,106.2,0,76.8,0,183.7c2.2-2.3,3.7-3.8,5-5.3c30.3-33.5,60.6-67,90.7-100.6c2.5-2.8,5-3.8,8.6-3.7
		c9.6,0.2,19.3,0.1,30.1,0.1c-1.8,2.2-2.9,3.7-4.1,5.1c-19.7,22.2-39.4,44.4-59.3,66.4c-2.6,2.8-2.8,4.8-1,8.1
		c23.4,42.9,46.7,85.9,70.1,128.9C1257.1,554.4,1257.8,556,1258.9,558.2z"/>
	<path class="st0" d="M1476.8,558.3c-9.5,0-19.1-0.1-28.8,0.1c-3,0-3.5-1.5-3.8-3.9c-1-10.8-2.2-21.5-3.3-33
		c-0.9,1.3-1.7,2.3-2.3,3.3c-15,26.3-38.2,38.4-67.8,39.5c-12.2,0.5-24.3-0.4-36-4.6c-23.1-8.2-37.7-24.4-42.1-48.4
		c-4.5-24.3,3.1-45,21.8-61.5c13.5-11.9,29.8-17.1,47-20.5c24.6-4.7,49.4-4.5,74.2-3.6c1.6,0.1,3.2,0,5.5,0
		c-0.5-13.1,0.1-26.2-5-38.4c-4.8-11.4-14.7-17-26-19.9c-16.6-4.2-33.3-3.9-49.8,0.9c-16.1,4.7-26.6,15.3-31.1,31.5
		c-0.3,0.9-0.6,1.9-1,3.3c-10-1.7-19.9-3.4-30.4-5.2c2-13.2,7.3-24.4,16.1-33.8c11.5-12.3,26.2-18.6,42.3-21.9c21.9-4.5,44-5,66-0.6
		c27.1,5.3,43.1,22,47.8,49c2,11.6,3,23.5,3.2,35.2c0.4,31-0.1,62,0.4,93C1473.8,531.7,1475.7,544.7,1476.8,558.3z M1440.9,451.6
		c-20.2-1.6-40-2.5-59.7,0.7c-14.1,2.3-27.7,6.3-38.9,15.7c-12.6,10.6-17.1,24.4-14,40.3c2.7,13.9,11.7,23.3,25.1,27.2
		c20.7,6,40.9,3.9,58.4-9.4C1436.4,507.5,1444.4,481.9,1440.9,451.6z"/>
	<path class="st0" d="M894.2,454.2c0.1,16.8,1.1,32.6,7.6,47.3c9.5,21.7,27.6,32.4,50.1,34.5c28.7,2.7,47.9-9.5,60.4-35.5
		c0.9-1.8,1.7-3.6,2.7-5.9c10,2,20,4.1,30.6,6.2c-0.4,1.7-0.6,3.1-1.2,4.4c-13.4,33.3-38.4,52.3-73.5,57.9
		c-21.2,3.4-42,1.1-61.1-9.3c-26.6-14.3-42.3-37.2-48.8-66.2c-7.2-32.1-6.3-64,8.5-94.1c14.1-28.6,36.4-47.7,68.6-53.3
		c51.5-9,93.1,18,106,68.6c3.7,14.7,5.5,29.7,5.2,45.5C997.7,454.2,946.3,454.2,894.2,454.2z M1013.2,429.2c-0.7-5.9-1-11.4-2-16.7
		c-3.1-17.5-11.3-31.9-26.9-41.2c-24.8-14.8-58.6-6.5-75.8,18.6c-8.1,11.8-11.9,24.9-12.6,39.4
		C935.1,429.2,973.7,429.2,1013.2,429.2z"/>
	<path class="st0" d="M64.7,300.7c0-10.2,0-19.8,0-30c1.8-0.1,3.5-0.3,5.3-0.3c30.8,0,61.7-0.3,92.5,0.1c34.5,0.4,65.2,10.6,89,37
		c19.2,21.4,30.8,46.5,35.2,74.8c5.6,35.8,2.9,70.8-12.6,104c-13,27.9-32,50.6-61.1,63.2c-11.9,5.1-24.4,7.7-37.4,7.7
		c-35.7,0.1-71.3,0-107,0.1c-1.2,0-2.3,0-3.9,0c0-10.1,0-20,0-30.7c2,0,4,0,5.9,0c30.8,0,61.7,0.3,92.5-0.2
		c35.8-0.5,62.4-17.1,76.2-50c19.9-47.4,19.5-94.6-8.1-139.6c-14.2-23.2-36.1-34.4-62.5-35.4c-32.6-1.1-65.3-0.5-98-0.7
		C68.9,300.7,67,300.7,64.7,300.7z"/>
	<path class="st0" d="M764.4,344.4c16.3,0,31.8,0,47.6,0c0,8.8,0,17.2,0,26.2c-15.6,0-31.2,0-47.2,0c-0.1,2.4-0.3,4.1-0.3,5.9
		c0,41.8,0,83.7,0,125.5c0,4.3,0.2,8.7,1,12.9c2.6,13,11.8,21.6,25.3,22.2c10.2,0.5,20.6-0.6,30.9-1.1c0.8,0,1.6-0.1,2.7-0.2
		c0,8.7,0,17.1,0,26c-18.9,2.4-37.7,4.6-56.3-1.4c-21.1-6.8-31.3-22.6-34.6-43.5c-1.1-7.2-1.3-14.6-1.3-21.9
		c-0.1-39.3-0.1-78.7-0.1-118c0-2,0-3.9,0-6.4c-12.8,0-25,0-37.6,0c0-9,0-17.4,0-26.3c12.5,0,24.7,0,37.5,0c0.1-2.2,0.3-4,0.3-5.8
		c0.4-14.7,0.6-29.3,1.2-44c0.1-1.5,1.6-4,2.6-4.1c9.2-1.1,18.5-1.8,28.3-2.7C764.4,306.8,764.4,325.2,764.4,344.4z"/>
	<path class="st1" d="M1465,143c-18,14.4-35.7,28.6-53.5,42.8c-0.3-0.1-0.5-0.3-0.8-0.4c7.2-21.9,14.4-43.9,21.6-66.1
		c-18.3-12-36.3-23.8-54.4-35.6c0-0.4,0.1-0.9,0.1-1.3c1.5,0,3,0,4.4,0c18.8-0.4,37.6-1,56.4-1.2c4.3,0,6.3-1.2,7.7-5.6
		c5.7-18.8,11.9-37.4,18.3-57.2c1,2.9,1.7,4.7,2.3,6.5c5.6,17.2,11.2,34.5,16.6,51.8c1,3.3,2.5,4.4,5.9,4.5c19,0.3,38,0.8,56.9,1.2
		c1.8,0,3.5,0,6.9,0c-2.5,1.8-3.7,2.8-5,3.6c-15.3,10-30.5,20.2-46,29.9c-4.2,2.6-4.5,4.9-3.1,9.2c6.6,19.2,12.7,38.5,19.1,57.8
		c0.3,0.8,0.5,1.5,1.2,3.8C1500.8,171.6,1483,157.4,1465,143z"/>
	<path class="st0" d="M20.7,483.7c22.8-46.5,19.2-93,0-139.4c0.4-0.2,0.9-0.5,1.3-0.7c39.9,23.2,79.7,46.4,120.8,70.4
		c-40.8,23.9-80.7,47.3-120.6,70.6C21.7,484.3,21.2,484,20.7,483.7z"/>
	<path class="st0" d="M355.5,558c-11.1,0-21.9,0-32.9,0c0-62.5,0-124.8,0-187.3c10.9,0,21.6,0,32.9,0
		C355.5,432.9,355.5,495.2,355.5,558z"/>
	<path class="st0" d="M661.1,370.6c0,62.6,0,124.8,0,187.3c-10.8,0-21.6,0-32.7,0c0-62.3,0-124.6,0-187.3
		C639.2,370.6,649.9,370.6,661.1,370.6z"/>
	<path class="st1" d="M1301.3,240.5c-12.1-7.9-23.7-15.5-35.3-23.1c0.1-0.3,0.2-0.6,0.3-0.9c12.6-0.4,25.1-1,37.7-1
		c4.5,0,6.3-1.6,7.5-5.7c3.4-11.5,7.2-22.8,11.3-35.5c2.6,8,4.8,14.7,6.9,21.3c1.7,5.2,3.6,10.4,5,15.7c0.8,3.1,2.3,4.2,5.5,4.2
		c13-0.2,25.9-0.1,38.9-0.1c0.2,0.7,0.4,1.3,0.5,2c-11.7,7.6-23.3,15.3-35.4,23.2c4.7,14.4,9.3,28.7,14.4,44.3
		c-12.7-10.1-24.2-19.3-36-28.7c-11.7,9.3-23.2,18.6-36,28.7C1291.9,269.3,1296.6,255.1,1301.3,240.5z"/>
	<path class="st0" d="M356,325c-11.3,0-22.2,0-33.4,0c0-11.1,0-22.1,0-33.4c11,0,22.1,0,33.4,0C356,302.6,356,313.6,356,325z"/>
	<path class="st0" d="M661,325.1c-11,0-21.4,0-32.3,0c0-11.1,0-22.1,0-33.5c10.6,0,21.3,0,32.3,0C661,302.6,661,313.7,661,325.1z"/>
</g>
</svg>
